<svg xmlns="http://www.w3.org/2000/svg" viewBox="0 0 46.08 28.67"><defs><style>.cls-1{fill:#5b1343;}</style></defs><title>behance</title><g id="Layer_2" data-name="Layer 2"><g id="Layer_1-2" data-name="Layer 1"><path id="Behance" class="cls-1" d="M41.62,4.06H30.07V1.19H41.62V4.06ZM22.38,15.82A7.52,7.52,0,0,1,23.5,20a8.36,8.36,0,0,1-1.27,4.57,8,8,0,0,1-2,2.26A7.91,7.91,0,0,1,17,28.29a20.49,20.49,0,0,1-4.05.38H0V0H13.85c3.49.06,6,1.07,7.42,3.05a7.29,7.29,0,0,1,1.32,4.38,6.33,6.33,0,0,1-1.33,4.22,6.72,6.72,0,0,1-2.18,1.64A6.31,6.31,0,0,1,22.38,15.82ZM6.61,11.3h6.07a5.66,5.66,0,0,0,3-.71,2.69,2.69,0,0,0,1.16-2.52,2.55,2.55,0,0,0-1.54-2.64A10.67,10.67,0,0,0,12,5H6.61Zm10.85,8.31a3.07,3.07,0,0,0-1.83-3.07,7,7,0,0,0-2.86-.49H6.61v7.64h6.06a6.77,6.77,0,0,0,2.91-.5A3.61,3.61,0,0,0,17.46,19.61ZM45.9,14.94A27.62,27.62,0,0,1,46.08,19h-15c.09,2.07.8,3.51,2.15,4.34a5.46,5.46,0,0,0,3,.77,4.55,4.55,0,0,0,3-.94,4.46,4.46,0,0,0,1.1-1.41h5.48a6.67,6.67,0,0,1-2,3.71,10,10,0,0,1-7.73,3A11.22,11.22,0,0,1,28.85,26q-3.13-2.54-3.14-8.23,0-5.34,2.83-8.19a9.92,9.92,0,0,1,7.35-2.85,11.77,11.77,0,0,1,4.83,1,8.37,8.37,0,0,1,3.54,3A10,10,0,0,1,45.9,14.94Zm-5.39.54a4.53,4.53,0,0,0-1.44-3.25,4.67,4.67,0,0,0-3.18-1.11,4.28,4.28,0,0,0-3.21,1.18,5.59,5.59,0,0,0-1.43,3.18Z"/></g></g></svg>